<svg width="35" height="35" viewBox="0 0 35 35" fill="none" xmlns="http://www.w3.org/2000/svg">
<path d="M31.4962 30.0211C36.6566 24.069 36.0233 15.093 30.2012 9.88354C33.1916 20.3626 25.2841 30.8303 14.3894 30.8303C14.1797 30.8303 15.4454 30.8376 10.4598 30.8069C13.1866 33.521 16.8184 35.0002 20.6099 35.0002C20.6197 35.0002 33.9704 34.9319 33.9783 34.9318C34.8897 34.9275 35.3438 33.8183 34.6936 33.1766L31.4962 30.0211Z" fill="#F46244"/>
<path d="M14.3897 28.7793C22.3238 28.7793 28.7786 22.3242 28.7786 14.3897C28.7786 6.45519 22.3238 0 14.3897 0C6.45554 0 0.000833809 6.45519 0.000833809 14.3897C0.000833809 17.8828 1.23732 21.1865 3.50337 23.8002L0.305922 26.9557C-0.342126 27.5954 0.106791 28.7065 1.0213 28.711C1.02835 28.7111 14.3827 28.7793 14.3897 28.7793ZM8.27185 9.29689H20.5759C21.1422 9.29689 21.6012 9.75599 21.6012 10.3223C21.6012 10.8886 21.1422 11.3477 20.5759 11.3477H8.27185C7.70556 11.3477 7.24653 10.8886 7.24653 10.3223C7.24653 9.75599 7.70563 9.29689 8.27185 9.29689ZM8.27185 13.3985H20.5759C21.1422 13.3985 21.6012 13.8576 21.6012 14.4239C21.6012 14.9901 21.1422 15.4492 20.5759 15.4492H8.27185C7.70556 15.4492 7.24653 14.9901 7.24653 14.4239C7.24653 13.8576 7.70563 13.3985 8.27185 13.3985ZM7.24653 18.5254C7.24653 17.9591 7.70556 17.5 8.27185 17.5H20.5759C21.1422 17.5 21.6012 17.9591 21.6012 18.5254C21.6012 19.0917 21.1422 19.5508 20.5759 19.5508H8.27185C7.70563 19.5508 7.24653 19.0917 7.24653 18.5254Z" fill="#F46244"/>
</svg>
