<svg width="31" height="31" viewBox="0 0 31 31" fill="none" xmlns="http://www.w3.org/2000/svg">
<path d="M27.8093 26.5184C32.3246 21.3103 31.7705 13.4564 26.6761 8.89807C29.2928 18.0673 22.3737 27.2264 12.8408 27.2264C12.6573 27.2264 13.7649 27.2329 9.40247 27.206C11.7884 29.5808 14.9662 30.8751 18.2837 30.8751C18.2923 30.8751 29.9742 30.8154 29.9811 30.8153C30.7786 30.8115 31.1759 29.8409 30.607 29.2795L27.8093 26.5184Z" fill="#4B575C"/>
<path d="M12.841 25.4319C19.7833 25.4319 25.4313 19.7836 25.4313 12.841C25.4313 5.89829 19.7833 0.25 12.841 0.25C5.8986 0.25 0.25073 5.89829 0.25073 12.841C0.25073 15.8974 1.33266 18.7881 3.31545 21.0752L0.517682 23.8363C-0.04936 24.3959 0.343442 25.3682 1.14364 25.3721C1.1498 25.3722 12.8349 25.4319 12.841 25.4319ZM7.48787 8.38478H18.2539C18.7494 8.38478 19.151 8.78649 19.151 9.282C19.151 9.7775 18.7494 10.1792 18.2539 10.1792H7.48787C6.99237 10.1792 6.59071 9.7775 6.59071 9.282C6.59071 8.78649 6.99243 8.38478 7.48787 8.38478ZM7.48787 11.9737H18.2539C18.7494 11.9737 19.151 12.3754 19.151 12.8709C19.151 13.3664 18.7494 13.7681 18.2539 13.7681H7.48787C6.99237 13.7681 6.59071 13.3664 6.59071 12.8709C6.59071 12.3754 6.99243 11.9737 7.48787 11.9737ZM6.59071 16.4597C6.59071 15.9642 6.99237 15.5625 7.48787 15.5625H18.2539C18.7494 15.5625 19.151 15.9642 19.151 16.4597C19.151 16.9552 18.7494 17.357 18.2539 17.357H7.48787C6.99243 17.357 6.59071 16.9552 6.59071 16.4597Z" fill="#4B575C"/>
</svg>
