<svg width="20" height="21" viewBox="0 0 20 21" fill="none" xmlns="http://www.w3.org/2000/svg">
<path d="M13.75 0H6.25C2.79875 0 0 2.86437 0 6.39654V14.0724C0 17.6046 2.79875 20.4689 6.25 20.4689H13.75C17.2013 20.4689 20 17.6046 20 14.0724V6.39654C20 2.86437 17.2013 0 13.75 0ZM18.125 14.0724C18.125 16.5415 16.1625 18.55 13.75 18.55H6.25C3.8375 18.55 1.875 16.5415 1.875 14.0724V6.39654C1.875 3.92748 3.8375 1.91896 6.25 1.91896H13.75C16.1625 1.91896 18.125 3.92748 18.125 6.39654V14.0724Z" fill="#F46244"/>
<path d="M10 5.11719C7.23875 5.11719 5 7.40843 5 10.2344C5 13.0604 7.23875 15.3517 10 15.3517C12.7613 15.3517 15 13.0604 15 10.2344C15 7.40843 12.7613 5.11719 10 5.11719ZM10 13.4327C8.2775 13.4327 6.875 11.9973 6.875 10.2344C6.875 8.47025 8.2775 7.03615 10 7.03615C11.7225 7.03615 13.125 8.47025 13.125 10.2344C13.125 11.9973 11.7225 13.4327 10 13.4327Z" fill="#F46244"/>
<path d="M15.375 5.41525C15.7429 5.41525 16.0412 5.10997 16.0412 4.73338C16.0412 4.3568 15.7429 4.05151 15.375 4.05151C15.007 4.05151 14.7087 4.3568 14.7087 4.73338C14.7087 5.10997 15.007 5.41525 15.375 5.41525Z" fill="#F46244"/>
</svg>
