<svg width="20" height="21" viewBox="0 0 20 21" fill="none" xmlns="http://www.w3.org/2000/svg">
<path d="M13.75 0.469238H6.25C2.79875 0.469238 0 3.33361 0 6.86578V14.5416C0 18.0738 2.79875 20.9382 6.25 20.9382H13.75C17.2013 20.9382 20 18.0738 20 14.5416V6.86578C20 3.33361 17.2013 0.469238 13.75 0.469238ZM18.125 14.5416C18.125 17.0107 16.1625 19.0192 13.75 19.0192H6.25C3.8375 19.0192 1.875 17.0107 1.875 14.5416V6.86578C1.875 4.39671 3.8375 2.3882 6.25 2.3882H13.75C16.1625 2.3882 18.125 4.39671 18.125 6.86578V14.5416Z" fill="white"/>
<path d="M10 5.58643C7.23875 5.58643 5 7.87767 5 10.7037C5 13.5297 7.23875 15.8209 10 15.8209C12.7613 15.8209 15 13.5297 15 10.7037C15 7.87767 12.7613 5.58643 10 5.58643ZM10 13.9019C8.2775 13.9019 6.875 12.4665 6.875 10.7037C6.875 8.93949 8.2775 7.50539 10 7.50539C11.7225 7.50539 13.125 8.93949 13.125 10.7037C13.125 12.4665 11.7225 13.9019 10 13.9019Z" fill="white"/>
<path d="M15.3751 5.88449C15.743 5.88449 16.0413 5.57921 16.0413 5.20262C16.0413 4.82603 15.743 4.52075 15.3751 4.52075C15.0071 4.52075 14.7088 4.82603 14.7088 5.20262C14.7088 5.57921 15.0071 5.88449 15.3751 5.88449Z" fill="white"/>
</svg>
