<svg width="20" height="22" viewBox="0 0 20 22" fill="none" xmlns="http://www.w3.org/2000/svg">
<path d="M13.75 0.937988H6.25C2.79875 0.937988 0 3.80236 0 7.33453V15.0104C0 18.5425 2.79875 21.4069 6.25 21.4069H13.75C17.2013 21.4069 20 18.5425 20 15.0104V7.33453C20 3.80236 17.2013 0.937988 13.75 0.937988ZM18.125 15.0104C18.125 17.4794 16.1625 19.488 13.75 19.488H6.25C3.8375 19.488 1.875 17.4794 1.875 15.0104V7.33453C1.875 4.86546 3.8375 2.85695 6.25 2.85695H13.75C16.1625 2.85695 18.125 4.86546 18.125 7.33453V15.0104Z" fill="#4B575C"/>
<path d="M10 6.05518C7.23875 6.05518 5 8.34642 5 11.1724C5 13.9984 7.23875 16.2896 10 16.2896C12.7613 16.2896 15 13.9984 15 11.1724C15 8.34642 12.7613 6.05518 10 6.05518ZM10 14.3707C8.2775 14.3707 6.875 12.9353 6.875 11.1724C6.875 9.40824 8.2775 7.97414 10 7.97414C11.7225 7.97414 13.125 9.40824 13.125 11.1724C13.125 12.9353 11.7225 14.3707 10 14.3707Z" fill="#4B575C"/>
<path d="M15.375 6.35324C15.7429 6.35324 16.0412 6.04796 16.0412 5.67137C16.0412 5.29478 15.7429 4.9895 15.375 4.9895C15.007 4.9895 14.7087 5.29478 14.7087 5.67137C14.7087 6.04796 15.007 6.35324 15.375 6.35324Z" fill="#4B575C"/>
</svg>
