<svg width="50" height="46" viewBox="0 0 50 46" fill="none" xmlns="http://www.w3.org/2000/svg">
<path d="M17.8085 0H50.0001V3.67163H21.8433V7.7044L50.0001 7.7044V11.1654H21.8433V16.1913H50.0001L49.9851 19.8629L17.8085 19.8629V0Z" fill="#F46244"/>
<path d="M7.18751 19.8629C5.60908 19.8629 4.19037 19.4854 2.93138 18.7304C1.69118 17.956 0.714053 16.9202 0 15.6232L2.62133 13.5904C3.22264 14.4422 3.88032 15.1198 4.59437 15.6232C5.30842 16.1265 6.1728 16.3782 7.18751 16.3782C8.01431 16.3782 8.66259 16.1943 9.13237 15.8264C9.60214 15.4392 9.83702 14.9165 9.83702 14.2583C9.83702 13.6969 9.65851 13.271 9.30148 12.9806C8.96325 12.6708 8.35254 12.303 7.46937 11.8771L5.46814 10.9478C4.04004 10.2896 2.93138 9.5249 2.14216 8.65372C1.35294 7.78254 0.958335 6.70808 0.958335 5.43035C0.958335 4.34622 1.22141 3.3976 1.74755 2.5845C2.29249 1.75204 3.03473 1.11317 3.97427 0.667904C4.91381 0.222635 5.9661 0 7.13114 0C8.55925 0 9.79005 0.329113 10.8235 0.987338C11.8758 1.64556 12.6932 2.52642 13.2758 3.62992L10.6826 5.69171C9.72428 4.22038 8.54045 3.48472 7.13114 3.48472C6.47346 3.48472 5.91913 3.64927 5.46814 3.97839C5.03595 4.28814 4.81986 4.74309 4.81986 5.34324C4.81986 5.84658 4.97958 6.25314 5.29903 6.56289C5.63726 6.85328 6.20099 7.18239 6.99021 7.55022L9.10418 8.50852C10.6638 9.22483 11.8195 10.0186 12.5711 10.8897C13.3227 11.7416 13.6985 12.816 13.6985 14.1131C13.6985 15.2747 13.4167 16.2911 12.853 17.1622C12.2892 18.0334 11.5094 18.7013 10.5135 19.166C9.53637 19.6306 8.42771 19.8629 7.18751 19.8629Z" fill="#F46244"/>
<path d="M29.9046 27.0866C28.0165 25.0904 25.5343 23.9953 22.92 23.9814C18.7742 23.9675 14.4435 23.9675 10.06 23.9953C9.37341 23.9953 8.70003 24.0646 8.03987 24.2032C3.10181 25.229 -0.410282 30.1918 0.038632 35.4874C0.263089 38.0797 1.35897 40.4918 3.15462 42.28C4.95028 44.0822 7.28728 45.108 9.7299 45.1773C10.5617 45.205 11.4067 45.205 12.2517 45.205C12.9515 45.205 13.6381 45.205 14.3247 45.1912C15.0112 45.1912 15.711 45.1773 16.3976 45.1773H16.7013C17.2954 45.1773 17.9028 45.1773 18.4969 45.1912C20.0285 45.205 21.5997 45.205 23.1577 45.1773C25.772 45.108 28.2278 43.9574 30.0763 41.9196C31.9247 39.8818 32.915 37.2479 32.8754 34.4754C32.849 31.689 31.7927 29.069 29.9046 27.0866ZM23.4086 25.5895C28.109 25.9222 31.5286 29.9978 31.3834 35.0853C31.2382 39.7154 27.4488 43.5554 22.92 43.6386C18.6818 43.7079 14.3643 43.7079 10.0864 43.6386C5.35959 43.5554 1.51741 39.563 1.53061 34.7249C1.54381 29.5958 5.24076 25.6449 10.126 25.534C10.905 25.5201 11.6972 25.5063 12.4762 25.5063C13.1364 25.5063 13.7833 25.5063 14.4303 25.5201C14.9716 25.5201 15.5262 25.5201 16.0675 25.534C16.0675 25.5201 21.811 25.4786 23.4086 25.5895Z" fill="#F46244"/>
<path d="M21.0168 36.8725C20.8908 36.8445 20.7649 36.8165 20.6389 36.7886C19.5192 36.4946 18.5814 35.8928 17.8536 34.997C17.7976 34.927 17.7836 34.871 17.8256 34.787C18.4974 33.5273 19.5332 32.7155 20.9188 32.3656C20.9328 32.3656 20.9328 32.3656 20.9608 32.3656C19.0433 33.3034 19.1133 36.0187 21.0168 36.8725Z" fill="#F46244"/>
<path d="M26.1673 34.689C26.2093 34.773 26.2093 34.815 26.1533 34.899C25.3275 35.9347 24.2778 36.5926 22.9761 36.8585C23.8999 36.3826 24.4317 35.6548 24.4317 34.619C24.4317 33.5833 23.9139 32.8414 23.0041 32.3516C23.424 32.4355 23.8159 32.5755 24.1938 32.7715C25.0476 33.2054 25.7054 33.8492 26.1673 34.689Z" fill="#F46244"/>
<path d="M30.1983 34.1291C29.9743 29.7622 26.0273 26.179 21.7023 26.417C16.9714 26.6829 13.4722 30.462 13.7102 35.0389C13.9481 39.5878 17.8672 43.185 22.2761 42.9051C27.035 42.6111 30.4362 38.846 30.1983 34.1291ZM26.8251 35.1789C25.8033 36.5086 24.4736 37.3344 22.822 37.5863C22.752 37.6003 22.6681 37.6003 22.5981 37.6143C22.4161 37.6283 22.2482 37.6423 22.0802 37.6563C20.0367 37.6283 18.4131 36.8165 17.1674 35.2349C17.0134 35.0389 17.0134 34.913 17.1114 34.689C17.8812 33.1354 19.0849 32.0996 20.7925 31.6937C21.3944 31.5537 21.9962 31.5118 22.5701 31.5677C24.3756 31.7357 25.9993 32.8134 26.895 34.521C27.007 34.787 26.993 34.9409 26.8251 35.1789Z" fill="#F46244"/>
<path d="M49.9996 23.9723V45.205H48.9027L39.5916 32.5399V45.205H36.301V23.9723H37.3735L46.709 36.5754V23.9723H49.9996Z" fill="#F46244"/>
</svg>
