<svg width="20" height="21" viewBox="0 0 20 21" fill="none" xmlns="http://www.w3.org/2000/svg">
<g clip-path="url(#clip0)">
<path d="M14.5892 12.7335L14.5817 12.7974C12.7492 11.8627 12.5575 11.7382 12.3208 12.1015C12.1567 12.3531 11.6783 12.9237 11.5342 13.0925C11.3883 13.2588 11.2433 13.2716 10.9958 13.1565C10.7458 13.0286 9.94333 12.7599 8.99333 11.89C8.25333 11.212 7.75666 10.3804 7.60999 10.1246C7.36583 9.693 7.87666 9.63159 8.34166 8.73096C8.42499 8.55186 8.38249 8.41114 8.32083 8.28406C8.25833 8.15613 7.76083 6.90241 7.55249 6.40263C7.35249 5.90455 7.14666 5.96767 6.99249 5.96767C6.51249 5.92502 6.16166 5.93185 5.85249 6.26105C4.50749 7.77404 4.84666 9.3348 5.99749 10.9945C8.25916 14.0239 9.46416 14.5816 11.6675 15.3561C12.2625 15.5497 12.805 15.5224 13.2342 15.4593C13.7125 15.3816 14.7067 14.8443 14.9142 14.2431C15.1267 13.6418 15.1267 13.1429 15.0642 13.0277C15.0025 12.9126 14.8392 12.8486 14.5892 12.7335Z" fill="white"/>
<path d="M17.1 3.47292C10.6925 -2.86646 0.0883333 1.73136 0.0841667 10.6746C0.0841667 12.4622 0.541667 14.2054 1.41333 15.7449L0 21.0002L5.27917 19.5913C11.8667 23.2331 19.9967 18.3973 20 10.6797C20 7.97096 18.9667 5.42173 17.0875 3.50618L17.1 3.47292ZM18.335 10.6515C18.33 17.1615 11.3475 21.2271 5.825 17.9043L5.525 17.7218L2.4 18.5534L3.2375 15.4447L3.03833 15.1248C-0.398333 9.52574 3.55 2.20812 10.06 2.20812C12.2717 2.20812 14.3475 3.09084 15.9108 4.68997C17.4733 6.27545 18.335 8.39995 18.335 10.6515Z" fill="white"/>
</g>
<defs>
<clipPath id="clip0">
<rect width="20" height="20.4689" fill="white" transform="translate(0 0.53125)"/>
</clipPath>
</defs>
</svg>
