<svg width="20" height="21" viewBox="0 0 20 21" fill="none" xmlns="http://www.w3.org/2000/svg">
<path d="M14.5892 12.2021L14.5817 12.2661C12.7492 11.3313 12.5575 11.2068 12.3208 11.5701C12.1567 11.8217 11.6783 12.3923 11.5342 12.5612C11.3883 12.7275 11.2433 12.7403 10.9958 12.6251C10.7458 12.4972 9.94333 12.2285 8.99333 11.3586C8.25333 10.6806 7.75666 9.84904 7.60999 9.59318C7.36583 9.16163 7.87666 9.10022 8.34166 8.19959C8.42499 8.02049 8.38249 7.87977 8.32083 7.75269C8.25833 7.62476 7.76083 6.37104 7.55249 5.87126C7.35249 5.37318 7.14666 5.43629 6.99249 5.43629C6.51249 5.39365 6.16166 5.40047 5.85249 5.72968C4.50749 7.24267 4.84666 8.80342 5.99749 10.4631C8.25916 13.4925 9.46416 14.0503 11.6675 14.8247C12.2625 15.0183 12.805 14.991 13.2342 14.9279C13.7125 14.8503 14.7067 14.313 14.9142 13.7117C15.1267 13.1104 15.1267 12.6115 15.0642 12.4963C15.0025 12.3812 14.8392 12.3172 14.5892 12.2021Z" fill="#F46244"/>
<path d="M17.1 2.94155C10.6925 -3.39783 0.0883333 1.19999 0.0841667 10.1432C0.0841667 11.9308 0.541667 13.6741 1.41333 15.2135L0 20.4689L5.27917 19.0599C11.8667 22.7017 19.9967 17.8659 20 10.1483C20 7.43959 18.9667 4.89036 17.0875 2.97481L17.1 2.94155ZM18.335 10.1202C18.33 16.6301 11.3475 20.6957 5.825 17.373L5.525 17.1904L2.4 18.022L3.2375 14.9133L3.03833 14.5935C-0.398333 8.99437 3.55 1.67674 10.06 1.67674C12.2717 1.67674 14.3475 2.55946 15.9108 4.1586C17.4733 5.74408 18.335 7.86858 18.335 10.1202Z" fill="#F46244"/>
</svg>
