<svg width="447" height="61" viewBox="0 0 447 61" fill="none" xmlns="http://www.w3.org/2000/svg">
<path d="M55.6984 49.1202C49.951 54.5124 43.1331 57.2086 35.2446 57.2086C30.8496 57.2086 26.9617 56.4503 23.5809 54.9337C20.2002 53.4171 17.3828 51.395 15.129 48.8674C12.8751 46.3398 11.1566 43.419 9.9733 40.105C8.84638 36.791 8.28291 33.3366 8.28291 29.7417C8.28291 25.9222 8.87455 22.4397 10.0578 19.2942C11.2974 16.0925 13.016 13.3402 15.2135 11.0373C17.411 8.73435 20.003 6.93692 22.9893 5.64503C26.032 4.35313 29.3283 3.70718 32.8781 3.70718C35.301 3.70718 37.4985 3.98803 39.4706 4.54972C41.4991 5.11142 43.274 5.84162 44.7953 6.74033C46.373 7.63904 47.6408 8.67817 48.5987 9.85773C49.613 10.9811 50.3173 12.1326 50.7117 13.3122H56.9662C56.121 11.4024 55.0222 9.63306 53.6699 8.00414C52.3739 6.37523 50.7399 4.97099 48.7678 3.79143C46.7956 2.61188 44.4854 1.68508 41.8372 1.01105C39.1889 0.337016 36.1744 0 32.7936 0C27.8914 0 23.4119 0.702117 19.355 2.10635C15.3544 3.51059 11.9173 5.53269 9.04359 8.17265C6.16993 10.7564 3.94424 13.9019 2.36655 17.6091C0.788849 21.2601 0 25.3605 0 29.9102C0 33.8421 0.61981 37.6897 1.85943 41.453C3.1554 45.1602 5.12752 48.4742 7.7758 51.395C10.4241 54.2597 13.8049 56.5907 17.9181 58.3881C22.0314 60.1294 26.9336 61 32.6245 61C36.2307 61 39.4424 60.663 42.2598 59.989C45.1334 59.3149 47.6127 58.5005 49.6975 57.5456C51.8386 56.5345 53.6136 55.4673 55.0222 54.3439C56.4309 53.2205 57.5014 52.2376 58.2339 51.395L55.6984 49.1202Z" fill="white"/>
<path d="M66.6681 30.5C66.6681 33.6455 67.2597 37.0157 68.443 40.6105C69.6826 44.1492 71.5984 47.4351 74.1903 50.4682C76.7822 53.5014 80.0785 56.029 84.0791 58.0511C88.0797 60.017 92.8691 61 98.4474 61C102.223 61 105.632 60.5506 108.674 59.6519C111.773 58.6971 114.534 57.4332 116.957 55.8605C119.436 54.2878 121.578 52.4903 123.381 50.4682C125.184 48.39 126.649 46.2274 127.776 43.9807C128.959 41.6777 129.832 39.3748 130.396 37.0718C131.016 34.7689 131.325 32.5783 131.325 30.5C131.325 27.3545 130.678 24.0124 129.382 20.4738C128.086 16.8789 126.085 13.5649 123.381 10.5318C120.676 7.49862 117.239 4.99908 113.069 3.03315C108.956 1.01105 104.082 0 98.4474 0C92.8691 0 88.0797 0.982964 84.0791 2.94889C80.0785 4.91482 76.7822 7.41436 74.1903 10.4475C71.5984 13.4245 69.6826 16.7104 68.443 20.3052C67.2597 23.9001 66.6681 27.2983 66.6681 30.5ZM74.951 30.5C74.951 26.5681 75.5426 22.9733 76.7259 19.7155C77.9655 16.4015 79.6277 13.5649 81.7125 11.2058C83.8537 8.84668 86.3611 7.02118 89.2348 5.72928C92.1084 4.38121 95.2357 3.70718 98.6164 3.70718C101.941 3.70718 105.068 4.38121 107.998 5.72928C110.984 7.02118 113.576 8.84668 115.774 11.2058C118.028 13.5649 119.803 16.4015 121.099 19.7155C122.395 22.9733 123.043 26.5681 123.043 30.5C123.043 34.4319 122.395 38.0548 121.099 41.3688C119.803 44.6266 118.028 47.4351 115.774 49.7942C113.576 52.1533 110.984 54.0069 107.998 55.355C105.068 56.6469 101.941 57.2928 98.6164 57.2928C95.2357 57.2928 92.1084 56.6469 89.2348 55.355C86.3611 54.0069 83.8537 52.1533 81.7125 49.7942C79.6277 47.4351 77.9655 44.6266 76.7259 41.3688C75.5426 38.0548 74.951 34.4319 74.951 30.5Z" fill="white"/>
<path d="M195.918 1.01105V46.087H195.58L148.672 0H148.249V59.989H152.137V14.913H152.475L199.384 61H199.806V1.01105H195.918Z" fill="white"/>
<path d="M244.484 59.989V5.64503H267.135V1.01105H214.141V5.64503H236.793V59.989H244.484Z" fill="white"/>
<path d="M304.229 42.6326L312.343 59.989H320.541L292.988 1.01105H288.762L263.744 59.989H267.632L275.069 42.6326H304.229ZM302.454 38.8412H276.675L288.846 10.4475H289.184L302.454 38.8412Z" fill="white"/>
<path d="M385.572 49.1202C379.825 54.5124 373.007 57.2086 365.118 57.2086C360.723 57.2086 356.835 56.4503 353.455 54.9337C350.074 53.4171 347.257 51.395 345.003 48.8674C342.749 46.3398 341.03 43.419 339.847 40.105C338.72 36.791 338.157 33.3366 338.157 29.7417C338.157 25.9222 338.748 22.4397 339.932 19.2942C341.171 16.0925 342.89 13.3402 345.087 11.0373C347.285 8.73435 349.877 6.93692 352.863 5.64503C355.906 4.35313 359.202 3.70718 362.752 3.70718C365.175 3.70718 367.372 3.98803 369.344 4.54972C371.373 5.11142 373.148 5.84162 374.669 6.74033C376.247 7.63904 377.515 8.67817 378.472 9.85773C379.487 10.9811 380.191 12.1326 380.585 13.3122H386.84C385.995 11.4024 384.896 9.63306 383.544 8.00414C382.248 6.37523 380.614 4.97099 378.642 3.79143C376.669 2.61188 374.359 1.68508 371.711 1.01105C369.063 0.337016 366.048 0 362.667 0C357.765 0 353.286 0.702117 349.229 2.10635C345.228 3.51059 341.791 5.53269 338.917 8.17265C336.044 10.7564 333.818 13.9019 332.24 17.6091C330.663 21.2601 329.874 25.3605 329.874 29.9102C329.874 33.8421 330.494 37.6897 331.733 41.453C333.029 45.1602 335.001 48.4742 337.65 51.395C340.298 54.2597 343.679 56.5907 347.792 58.3881C351.905 60.1294 356.807 61 362.498 61C366.104 61 369.316 60.663 372.133 59.989C375.007 59.3149 377.486 58.5005 379.571 57.5456C381.712 56.5345 383.487 55.4673 384.896 54.3439C386.305 53.2205 387.375 52.2376 388.108 51.395L385.572 49.1202Z" fill="white"/>
<path d="M424.349 59.989V5.64503H447V1.01105H394.006V5.64503H416.657V59.989H424.349Z" fill="white"/>
</svg>
