<svg width="343" height="159" viewBox="0 0 343 159" fill="none" xmlns="http://www.w3.org/2000/svg">
<path d="M0.305664 79.5C0.305664 87.6989 1.8054 96.4834 4.80488 105.854C7.9472 115.077 12.8035 123.642 19.3738 131.548C25.9441 139.454 34.2998 146.043 44.4409 151.314C54.582 156.438 66.7228 159 80.8632 159C90.433 159 99.0744 157.829 106.787 155.486C114.643 152.997 121.642 149.703 127.784 145.604C134.068 141.504 139.496 136.819 144.067 131.548C148.637 126.131 152.351 120.494 155.208 114.638C158.207 108.635 160.421 102.633 161.849 96.6298C163.42 90.6271 164.206 84.9171 164.206 79.5C164.206 71.3011 162.563 62.5898 159.278 53.366C155.993 43.9959 150.923 35.3577 144.067 27.4517C137.211 19.5456 128.498 13.0304 117.928 7.90607C107.501 2.63535 95.1465 0 80.8632 0C66.7228 0 54.582 2.56215 44.4409 7.68646C34.2998 12.8108 25.9441 19.326 19.3738 27.2321C12.8035 34.9917 7.9472 43.5566 4.80488 52.9268C1.8054 62.297 0.305664 71.1547 0.305664 79.5ZM21.302 79.5C21.302 69.2514 22.8018 59.8812 25.8012 51.3895C28.9436 42.7514 33.1572 35.3577 38.442 29.2086C43.8696 23.0594 50.2256 18.3011 57.5101 14.9337C64.7946 11.4199 72.7218 9.66298 81.2917 9.66298C89.7188 9.66298 97.6461 11.4199 105.073 14.9337C112.643 18.3011 119.214 23.0594 124.784 29.2086C130.498 35.3577 134.997 42.7514 138.282 51.3895C141.567 59.8812 143.21 69.2514 143.21 79.5C143.21 89.7486 141.567 99.192 138.282 107.83C134.997 116.322 130.498 123.642 124.784 129.791C119.214 135.941 112.643 140.772 105.073 144.286C97.6461 147.653 89.7188 149.337 81.2917 149.337C72.7218 149.337 64.7946 147.653 57.5101 144.286C50.2256 140.772 43.8696 135.941 38.442 129.791C33.1572 123.642 28.9436 116.322 25.8012 107.83C22.8018 99.192 21.302 89.7486 21.302 79.5Z" fill="#E3F1F6"/>
<path d="M332.227 2.63535V120.128H331.37L212.462 0H211.391V156.365H221.246V38.8715H222.103L341.011 159H342.083V2.63535H332.227Z" fill="#E3F1F6"/>
</svg>
