<svg width="400" height="159" viewBox="0 0 400 159" fill="none" xmlns="http://www.w3.org/2000/svg">
<path d="M0.429688 117.493C0.715353 123.789 2.28651 129.499 5.14316 134.623C8.14265 139.747 12.142 144.14 17.1411 147.8C22.2831 151.314 28.282 154.095 35.138 156.145C41.994 158.048 49.4927 159 57.6341 159C65.9184 159 73.3457 157.975 79.916 155.925C86.6291 153.876 92.3424 150.948 97.0559 147.141C101.769 143.334 105.412 138.722 107.983 133.305C110.554 127.888 111.839 121.885 111.839 115.297C111.839 106.22 109.625 98.826 105.197 93.116C100.77 87.2597 95.1991 82.4282 88.486 78.6216C81.9157 74.6685 74.7026 71.3743 66.8468 68.739C59.1339 66.1036 51.9208 63.3218 45.2077 60.3937C38.6374 57.4655 33.1383 54.0981 28.7105 50.2914C24.2827 46.4848 22.0688 41.4337 22.0688 35.1381C22.0688 31.6243 22.783 28.3301 24.2113 25.2555C25.7825 22.1809 27.9964 19.5456 30.853 17.3494C33.8525 15.0069 37.4947 13.1768 41.7797 11.8591C46.0647 10.395 50.9924 9.66298 56.5629 9.66298C65.847 9.66298 73.7028 11.7127 80.1302 15.8122C86.7005 19.7652 90.557 26.0608 91.6997 34.6989H106.269C105.412 29.2818 103.483 24.4503 100.484 20.2044C97.4844 15.8122 93.6993 12.1519 89.1287 9.22376C84.5581 6.14917 79.3447 3.87983 73.4885 2.41574C67.7752 0.805244 61.7763 0 55.4916 0C48.9213 0 42.6367 0.878452 36.6377 2.63535C30.7816 4.39226 25.5682 6.95442 20.9976 10.3218C16.5698 13.6892 12.999 17.9351 10.2851 23.0594C7.71415 28.1837 6.42866 34.0401 6.42866 40.6285C6.42866 49.2666 8.57115 56.221 12.8561 61.4917C17.1411 66.7624 22.4973 71.1547 28.9248 74.6685C35.4951 78.1823 42.5653 81.1837 50.1354 83.6727C57.7055 86.1616 64.7043 89.0166 71.1318 92.2376C77.7021 95.3122 83.1297 99.1188 87.4147 103.657C91.6997 108.196 93.8422 114.272 93.8422 121.885C93.8422 131.402 90.4142 138.356 83.5582 142.749C76.8451 147.141 67.8466 149.337 56.5629 149.337C47.5644 149.337 40.3514 148.166 34.9237 145.823C29.4961 143.334 25.354 140.406 22.4973 137.039C19.6407 133.671 17.7124 130.231 16.7126 126.717C15.7128 123.057 15.1414 119.982 14.9986 117.493H0.429688Z" fill="white"/>
<path d="M162.83 2.63535V156.365H259.671V144.286H182.327V79.9392H248.744V69.837H182.327V14.7141H259.671V2.63535H162.83Z" fill="white"/>
<path d="M302.427 2.63535V156.365H399.267V144.286H321.923V79.9392H388.341V69.837H321.923V14.7141H399.267V2.63535H302.427Z" fill="white"/>
</svg>
