<svg width="187" height="39" viewBox="0 0 187 39" fill="none" xmlns="http://www.w3.org/2000/svg">
<path d="M104.919 19.0926C104.919 21.0616 105.279 23.1713 105.999 25.4216C106.754 27.6368 107.92 29.6937 109.498 31.5924C111.076 33.4911 113.083 35.0734 115.518 36.3392C117.954 37.5699 120.87 38.1852 124.266 38.1852C126.564 38.1852 128.639 37.9039 130.491 37.3413C132.378 36.7436 134.059 35.9524 135.534 34.9679C137.043 33.9834 138.347 32.8582 139.444 31.5924C140.542 30.2915 141.434 28.9378 142.12 27.5313C142.84 26.0897 143.372 24.6481 143.715 23.2065C144.092 21.7648 144.281 20.3936 144.281 19.0926C144.281 17.1236 143.886 15.0315 143.098 12.8163C142.309 10.566 141.091 8.49145 139.444 6.59274C137.798 4.69403 135.705 3.12935 133.167 1.89871C130.663 0.632902 127.696 0 124.266 0C120.87 0 117.954 0.615322 115.518 1.84597C113.083 3.07661 111.076 4.64129 109.498 6.54C107.92 8.40355 106.754 10.4605 105.999 12.7108C105.279 14.9611 104.919 17.0884 104.919 19.0926ZM109.961 19.0926C109.961 16.6313 110.322 14.381 111.042 12.3416C111.797 10.2671 112.809 8.49146 114.078 7.01468C115.381 5.5379 116.908 4.39516 118.657 3.58645C120.406 2.74258 122.31 2.32064 124.368 2.32064C126.392 2.32064 128.296 2.74258 130.08 3.58645C131.898 4.39516 133.476 5.5379 134.814 7.01468C136.186 8.49146 137.266 10.2671 138.055 12.3416C138.844 14.381 139.239 16.6313 139.239 19.0926C139.239 21.5539 138.844 23.8218 138.055 25.8963C137.266 27.9357 136.186 29.6937 134.814 31.1705C133.476 32.6473 131.898 33.8076 130.08 34.6515C128.296 35.4602 126.392 35.8645 124.368 35.8645C122.31 35.8645 120.406 35.4602 118.657 34.6515C116.908 33.8076 115.381 32.6473 114.078 31.1705C112.809 29.6937 111.797 27.9357 111.042 25.8963C110.322 23.8218 109.961 21.5539 109.961 19.0926Z" fill="white"/>
<path d="M184.633 0.632902V28.8499H184.427L155.87 0H155.613V37.5523H157.98V9.33533H158.186L186.742 38.1852H187V0.632902H184.633Z" fill="white"/>
<path d="M0 28.217C0.0686049 29.7289 0.445932 31.1002 1.13198 32.3308C1.85233 33.5615 2.8128 34.6163 4.01338 35.4953C5.24827 36.3392 6.68897 37.0073 8.33549 37.4995C9.98201 37.9566 11.7829 38.1852 13.7381 38.1852C15.7277 38.1852 17.5114 37.939 19.0893 37.4468C20.7015 36.9545 22.0736 36.2513 23.2056 35.3371C24.3376 34.4229 25.2123 33.3153 25.8297 32.0144C26.4472 30.7134 26.7559 29.2718 26.7559 27.6895C26.7559 25.5095 26.2242 23.7339 25.1608 22.3626C24.0975 20.9561 22.7597 19.7958 21.1474 18.8816C19.5695 17.9323 17.8373 17.1411 15.9506 16.5082C14.0983 15.8753 12.366 15.2073 10.7538 14.504C9.1759 13.8008 7.85526 12.9921 6.79188 12.0779C5.72851 11.1637 5.19682 9.95065 5.19682 8.43871C5.19682 7.59484 5.36833 6.80371 5.71135 6.06533C6.08868 5.32694 6.62037 4.69403 7.30642 4.16661C8.02677 3.60403 8.90148 3.16452 9.93055 2.84806C10.9596 2.49645 12.1431 2.32064 13.4809 2.32064C15.7105 2.32064 17.5971 2.8129 19.1408 3.79742C20.7187 4.74678 21.6448 6.25871 21.9193 8.33323H25.4181C25.2123 7.03226 24.7492 5.87194 24.0288 4.85226C23.3085 3.79742 22.3995 2.91839 21.3018 2.21516C20.2041 1.47677 18.9521 0.931772 17.5457 0.58016C16.1736 0.193386 14.7329 0 13.2236 0C11.6457 0 10.1364 0.210967 8.69567 0.632902C7.28927 1.05484 6.03723 1.67016 4.93955 2.47887C3.87617 3.28758 3.01861 4.30726 2.36687 5.5379C1.74942 6.76855 1.4407 8.175 1.4407 9.75726C1.4407 11.8318 1.95524 13.5019 2.98431 14.7677C4.01338 16.0336 5.29973 17.0884 6.84333 17.9323C8.42125 18.7761 10.1192 19.4969 11.9372 20.0947C13.7553 20.6924 15.4361 21.3781 16.9797 22.1516C18.5576 22.89 19.8611 23.8042 20.8902 24.8942C21.9193 25.9842 22.4338 27.4434 22.4338 29.2718C22.4338 31.5573 21.6105 33.2274 19.964 34.2823C18.3518 35.3371 16.1907 35.8645 13.4809 35.8645C11.3198 35.8645 9.58753 35.5832 8.28404 35.0207C6.98054 34.4229 5.98577 33.7197 5.29973 32.911C4.61368 32.1023 4.15059 31.276 3.91048 30.4321C3.67036 29.5531 3.53315 28.8147 3.49885 28.217H0Z" fill="white"/>
<path d="M39.0019 0.632902V37.5523H62.2589V34.6515H43.6841V19.1981H59.6348V16.7719H43.6841V3.53371H62.2589V0.632902H39.0019Z" fill="white"/>
<path d="M72.5271 0.632902V37.5523H95.7842V34.6515H77.2094V19.1981H93.16V16.7719H77.2094V3.53371H95.7842V0.632902H72.5271Z" fill="white"/>
</svg>
